<svg id="SvgjsSvg1001" width="288" height="288" xmlns="http://www.w3.org/2000/svg" version="1.1" xmlns:xlink="http://www.w3.org/1999/xlink" xmlns:svgjs="http://svgjs.com/svgjs"><defs id="SvgjsDefs1002"></defs><g id="SvgjsG1008" transform="matrix(0.9167,0,0,0.9167,11.995175849914546,11.995199523353591)"><svg xmlns="http://www.w3.org/2000/svg" width="288" height="288" viewBox="0 0 512 512"><circle cx="254.372" cy="72.289" r="14.427" fill="#acacac" class="colorB8D2FF svgShape"></circle><path fill="#acacac" d="M427.278 204.14c0 7.547.377 13.664-7.17 13.664-7.546 0-13.664-6.117-13.664-13.664 0-7.546 6.118-13.664 13.664-13.664 7.547 0 7.17 6.118 7.17 13.664zM84.973 166.271c0-8.343-.416-15.107 7.927-15.107 8.344 0 15.107 6.764 15.107 15.107s-6.764 15.106-15.107 15.106-7.927-6.763-7.927-15.106zM317.21 215.554h-14.909c-6.296 0-11.399-5.103-11.399-11.398 0-9.803 7.947-17.75 17.751-17.75h2.206c9.803 0 17.75 7.947 17.75 17.75-.001 6.295-5.104 11.398-11.399 11.398zM228.611 129.746v93.418H117.945zM325.694 65.83s-.25 17.75 2 19.5c0 0 25.5 4 51.75-13.75s29.25-34.25 29.25-34.25h-28s-18 28-55 28.5z" class="colorB8D2FF svgShape"></path><path fill="#acacac" d="M321.944 60.164s-49.666 25.771-45.333 48.552c4.333 22.781 49.667 21.781 62 20.448s66.667-12.333 88.667-24.333V85.497s-44 24-100 26.333c0 0-38 .107-25.667-17.613 12.333-17.72 24.321-21.486 24.321-21.486l1.128-15.868-5.116 3.301zM83.81 390.37v82.794h343.03V371.545s-51.229-25.381-64.229-25.381v56.34s-4 20.993-22.667 20.993c-18.666 0-24.666-16.962-24.666-16.962l-5.523-53.371-6.477 53.371s-6.667 16.629-23.667 16.629-23.222-13.654-23.611-20.66c-.389-7.007 0-74.34 0-74.34s-54.722-1-87.722 11.333c0 0 5.333 24.333-13.333 23.333 0 0-3.457 18.908-22.062 21.121L83.81 390.37z" class="colorB8D2FF svgShape"></path><path fill="#000000" d="M318.146 293.734h7.653v7.653h-7.653zM305.441 293.734h7.653v7.653h-7.653zM292.736 293.734h7.653v7.653h-7.653zM309.755 291.936c7.698 0 13.962-6.263 13.962-13.962 0-7.698-6.264-13.961-13.962-13.961s-13.962 6.263-13.962 13.961c0 7.699 6.264 13.962 13.962 13.962zm0-17.923c2.185 0 3.962 1.776 3.962 3.961s-1.777 3.962-3.962 3.962-3.962-1.777-3.962-3.962 1.777-3.961 3.962-3.961zM141.345 426.126c-6.69 0-12.133 5.443-12.133 12.134s5.442 12.133 12.133 12.133v-10a2.136 2.136 0 01-2.133-2.133c0-1.177.957-2.134 2.133-2.134 1.177 0 2.134.957 2.134 2.134h10c0-6.691-5.444-12.134-12.134-12.134zM282.289 452.96a2.127 2.127 0 01-1.01-1.283 2.134 2.134 0 013.096-2.439l4.889-8.724a12.055 12.055 0 00-9.222-1.094 12.057 12.057 0 00-7.294 5.746 12.056 12.056 0 00-1.096 9.222 12.06 12.06 0 005.747 7.295 12.053 12.053 0 005.911 1.546c4.251 0 8.383-2.233 10.605-6.198l-8.723-4.89a2.136 2.136 0 01-2.903.819zM406.317 385.628c-5.762-3.396-13.217-1.471-16.613 4.294a12.054 12.054 0 00-1.293 9.197 12.051 12.051 0 005.588 7.416l5.076-8.616a2.13 2.13 0 01.55-3.903 2.134 2.134 0 012.372 3.149l8.615 5.077c3.396-5.765 1.47-13.217-4.295-16.614zM191.444 392.503a2.134 2.134 0 01.035-4.266h.036l.167-9.999-.206-.001c-6.596 0-12.018 5.31-12.128 11.931-.112 6.688 5.239 12.222 11.929 12.334l.206.002c6.597 0 12.018-5.311 12.129-11.931l-9.999-.167c-.019 1.176-.955 2.147-2.169 2.097zM125.165 140.697h9.046v9.047h-9.046zM251.182 136.174h9.046v9.047h-9.046zM180.127 108.716h9.047v9.047h-9.047zM154.945 94.217h9.046v9.047h-9.046zM209.979 68.207h9.047v9.047h-9.047zM110.723 69.877h9.047v9.047h-9.047z" class="color1F4499 svgShape"></path><path fill="#000000" d="M416.913 32.4H79.485v447.2h353.029V32.4h-15.601zm5.602 181.136c-.176.009-.352.025-.53.025-5.344 0-9.69-4.352-9.69-9.7 0-5.344 4.347-9.69 9.69-9.69.179 0 .354.016.53.025v19.34zm0-92.247c-9.916 7.375-21.668 11.262-34.141 11.262-7.425 0-14.652-1.404-21.388-4.112 11.767-2.482 23.81-5.776 35.968-9.868a332.38 332.38 0 0 0 19.561-7.257v9.975zm-22.745-12.198c-16.467 5.543-32.695 9.597-48.24 12.051-36.471 5.798-64.746 1.492-68.767-10.478-2.086-6.193 2.243-14.945 12.19-24.643a102.696 102.696 0 0 1 4.841-4.401c4.183-3.578 9.052-7.207 14.479-10.79a194.736 194.736 0 0 1 7.306-4.582 68.503 68.503 0 0 0-.38 3.629c-14.234 9.177-29.202 22.155-25.094 34.365 2.799 8.332 13.406 12.631 30.907 12.63 3.402 0 7.068-.162 10.985-.49 4.759-.395 9.809-1.043 15.056-1.909l.001.009c4.85-.726 9.523-1.646 14.023-2.751 9.822-2.206 20.063-5.07 30.281-8.503 8.744-2.943 17.172-6.185 25.155-9.668v6.933a320.12 320.12 0 0 1-22.743 8.598zM371.099 42.4a80.227 80.227 0 0 1-9.792 7.281c-8.662 5.469-18.397 9.226-28.481 11.03.247-.954.511-1.902.807-2.84a56.785 56.785 0 0 1 7.621-15.472h29.845zm-49.774 39.474a66.598 66.598 0 0 0 7.557 24.96c-14.511.238-22.229-2.591-23.298-5.778-.81-2.406 1.804-9.18 15.741-19.182zm101.19.736c-1.7.775-3.423 1.54-5.169 2.292a83.381 83.381 0 0 0 5.169-5.707v3.415zm-58.577 19.582c-8.416 1.858-16.476 3.199-23.871 3.955a56.674 56.674 0 0 1-6.956-15.426 90.338 90.338 0 0 0 17.905-1.932l-2.066-9.784a80.443 80.443 0 0 1-16.596 1.726c-.365 0-.73-.013-1.097-.018a58.273 58.273 0 0 1-.273-5.542c0-.758.019-1.506.046-2.247.023-.61.059-1.218.102-1.825 12.576-1.745 24.778-6.182 35.514-12.96a90.052 90.052 0 0 0 8.462-6.054 90.557 90.557 0 0 0 10.222-9.684h15.255c-9.242 15.084-23.49 26.979-40.068 33.226l3.525 9.357c20.831-7.849 37.761-22.912 48.012-42.583h10.462v18.992c-13.32 24.393-37.287 35.672-58.578 40.799zM329.484 42.4a66.7 66.7 0 0 0-4.726 10.509c-5.754 3.141-11.132 6.358-15.999 9.578-5.768 3.808-10.971 7.688-15.469 11.536a112.501 112.501 0 0 0-5.317 4.837c-16.474 16.06-17.08 27.896-14.688 34.992 4.374 13.021 21.597 19.943 47.844 19.942 8.986 0 19.044-.823 29.991-2.479 11.044 7.352 23.877 11.234 37.254 11.234 12.032 0 23.852-3.269 34.141-9.31v50.955c-.177-.005-.352-.025-.53-.025-10.857 0-19.69 8.833-19.69 19.69 0 10.862 8.833 19.7 19.69 19.7.179 0 .354-.021.53-.025v140.167a360.868 360.868 0 0 0-55.246-23.051l.009-33.843-.004-7.568 17.905 12.681c4.716 3.341 10.442 4.608 16.131 3.573 5.686-1.035 10.599-4.243 13.834-9.032 6.466-9.572 4.028-22.749-5.434-29.375l-40.421-28.303a60.366 60.366 0 0 0-4.358-2.755v-44.177c0-6.024-4.273-11.065-9.948-12.258v-5.311c0-6.315-5.138-11.453-11.452-11.453h-15.82a35.182 35.182 0 0 0-18.442-5.197 35.184 35.184 0 0 0-18.442 5.197h-15.801c-6.315 0-11.453 5.138-11.453 11.453v5.304c-5.683 1.186-9.965 6.235-9.965 12.269v44.217a64.41 64.41 0 0 0-4.354 2.771l-16.316 11.424V120.403L106.261 227.23h116.675v40.039l-14.09 9.866c-9.462 6.626-11.899 19.804-5.433 29.375 3.235 4.788 8.148 7.997 13.834 9.032a21.4 21.4 0 0 0 5.688.252v8.908a361.857 361.857 0 0 0-52.365 8.639l-3.344-21.582a14.995 14.995 0 0 0-6.004-9.885 15 15 0 0 0-11.243-2.735l-2.063.319a28.477 28.477 0 0 0-6.224-6.238c-6.126-4.484-13.631-6.314-21.133-5.151l-31.074 4.816v-107.45c1.187.221 2.397.346 3.63.346 10.862 0 19.7-8.833 19.7-19.69 0-10.862-8.838-19.7-19.7-19.7-1.232 0-2.443.125-3.63.347V42.4h239.999zm27.773 345.392h-38.419l-.142-3.789h38.562l-.001 3.789zm-.003 10l-.001 1.755c0 10.466-8.515 18.98-18.98 18.98a18.922 18.922 0 0 1-18.968-18.27l-.092-2.466h38.041zm.011-40.891h-22.272v10h22.27l-.002 7.102h-38.938l-.712-18.991a8.325 8.325 0 0 0-8.347-8.04 8.333 8.333 0 0 0-8.346 8.014l-.772 19.018h-38.86v-7.102h22.645v-10h-22.645v-2.963h9.618v-10h-9.618v-5.969h95.985l-.002 5.969h-8.838v10h8.836l-.002 2.962zM222.936 217.23H133.63l89.306-75.313v75.313zm40.669-15.375a2.533 2.533 0 0 1 2.525-2.534h7.933a35.553 35.553 0 0 0-.196 3.711v29.517c0 2.043.418 3.991 1.171 5.762a63.3 63.3 0 0 0-11.433 3.045v-39.501zm140.369 83.423c5.021 3.516 6.313 10.507 2.883 15.585a11.213 11.213 0 0 1-7.34 4.793 11.218 11.218 0 0 1-8.559-1.896l-2.856-2.023 12.646-18.718 3.226 2.259zm-24.036 10.677l-22.673-16.058.012 26.911-.002 8.474-17.094-10.853c.628-1.676.987-3.48.987-5.372v-31.425c0-1.646-.267-3.23-.748-4.719l18.598-8.736a51.141 51.141 0 0 1 4.549 2.808l28.986 20.296-12.615 18.674zm-118.653 31.16l23.504-14.928a15.254 15.254 0 0 0 7.947 2.24H325.8c2.91 0 5.624-.828 7.946-2.239l23.526 14.937v.845h-95.987v-.855zm25.246-116.494c2.376 6.131 8.322 10.498 15.282 10.498h14.909c6.961 0 12.907-4.367 15.284-10.498h2.661v12.026h-50.801v-12.026h2.665zm8.884-5.901c0-7.031 5.72-12.75 12.751-12.75h2.205c7.031 0 12.751 5.719 12.751 12.75a6.407 6.407 0 0 1-6.399 6.399h-14.909a6.406 6.406 0 0 1-6.399-6.399zm-6.772 32.605c-2.6 0-4.712-2.091-4.766-4.678h50.781a4.776 4.776 0 0 1-4.766 4.678h-41.249zm-2.932 10.087h46.766c4.65 0 9.276.598 13.737 1.732l-12.006 5.64a15.26 15.26 0 0 0-8.408-2.521h-33.063a15.28 15.28 0 0 0-8.411 2.522l-12.066-5.67a53.946 53.946 0 0 1 13.451-1.703zm45.458 20.221v31.425c0 2.96-2.408 5.37-5.369 5.37h-33.063a5.376 5.376 0 0 1-5.369-5.37v-31.425a5.375 5.375 0 0 1 5.369-5.369H325.8a5.375 5.375 0 0 1 5.369 5.369zm12.307-29.276a14.68 14.68 0 0 0 1.192-5.807v-29.517c0-1.253-.067-2.49-.195-3.71h7.93a2.531 2.531 0 0 1 2.528 2.529v39.535a65.81 65.81 0 0 0-11.455-3.03zm1.506-49.035h-3.079a35.386 35.386 0 0 0-3.592-6.492h5.219c.801 0 1.452.651 1.452 1.453v5.039zm-10.431 11.299h-1.806c-1.937-10.594-11.229-18.651-22.374-18.651h-2.205c-11.145 0-20.437 8.058-22.374 18.651h-1.807c1.219-12.878 12.091-22.988 25.282-22.988 13.193 0 24.064 10.11 25.284 22.988zm-57.919-11.299h-3.061v-5.039c0-.802.652-1.453 1.453-1.453h5.199a35.441 35.441 0 0 0-3.591 6.492zm-21.66 67.723a54.604 54.604 0 0 1 4.583-2.85l18.561 8.721a15.308 15.308 0 0 0-.748 4.717v31.425c0 1.892.36 3.695.987 5.37l-17.069 10.84V279.95l-22.665 16.053-12.668-18.637 29.019-20.321zm-37.212 26.057l12.698 18.682-2.861 2.025a11.21 11.21 0 0 1-8.558 1.896 11.217 11.217 0 0 1-7.341-4.793c-3.431-5.078-2.137-12.069 2.883-15.585l3.179-2.225zm15.617 28.868l17.909-12.684-.001 23.951c-6.128.079-12.247.305-18.35.689V312.25c.145-.098.298-.179.442-.28zm66.207 75.822h-38.3v-3.789h38.454l-.154 3.789zm-38.301 10h37.895l-.106 2.601a18.854 18.854 0 0 1-18.886 18.135c-10.423 0-18.902-8.48-18.902-18.902v-1.834zm-101.391-41.087a28.873 28.873 0 0 0-.206-1.691l-6.689-43.209a29.162 29.162 0 0 0-.587-2.834c1.041.02 2.05.348 2.907.975a5.059 5.059 0 0 1 2.027 3.341l5.861 37.834a5.062 5.062 0 0 1-.923 3.795 5.096 5.096 0 0 1-2.39 1.789zM89.485 157.096a9.619 9.619 0 0 1 3.63-.706c5.349 0 9.7 4.351 9.7 9.7 0 5.344-4.352 9.69-9.7 9.69a9.618 9.618 0 0 1-3.63-.705v-17.979zm0 145.909l20.645-3.2 3.943 26.351-24.588 3.835v-26.986zm0 37.106l35.95-5.606-5.424-36.231 2.078-.322c10.035-1.553 19.469 5.346 21.023 15.384l6.69 43.211c1.554 10.037-5.348 19.468-15.385 21.023l-44.934 6.966v-44.425zm0 129.489v-74.945l46.466-7.203c11.326-1.754 20.058-10.015 22.995-20.384l1.528-.237c8.235-1.282 13.893-9.02 12.611-17.245l-.979-6.32a351.655 351.655 0 0 1 50.828-8.524v89.1h10v-89.889a356.002 356.002 0 0 1 18.35-.714l-.001 66.388c0 15.938 12.965 28.902 28.901 28.902a28.828 28.828 0 0 0 28.878-27.729l.133-3.266.116 3.099a28.888 28.888 0 0 0 28.96 27.896c15.979 0 28.98-13 28.98-28.979l.013-48.382a350.924 350.924 0 0 1 55.249 23.865V469.6H89.485z" class="color1F4499 svgShape"></path><path fill="#000000" d="M254.325 92.423c10.857 0 19.691-8.834 19.691-19.692s-8.834-19.692-19.691-19.692c-10.858 0-19.692 8.834-19.692 19.692s8.834 19.692 19.692 19.692zm0-29.385c5.344 0 9.691 4.348 9.691 9.692s-4.348 9.692-9.691 9.692c-5.345 0-9.692-4.349-9.692-9.692 0-5.344 4.347-9.692 9.692-9.692z" class="color1F4499 svgShape"></path><path fill="#000000" d="M109.784 359.63h24.588v10h-24.588z" transform="rotate(-9.271 122.07 364.617)" class="color1F4499 svgShape"></path><path fill="#000000" d="M107.652 345.918h24.587v10h-24.587z" transform="rotate(-9.25 120.062 350.928)" class="color1F4499 svgShape"></path></svg></g></svg>